<svg width="70" height="14" viewBox="0 0 70 14" fill="none" xmlns="http://www.w3.org/2000/svg">
<g clip-path="url(#clip0_176_151)">
<path d="M20.1493 11.3474L17.5041 5.43556C17.2892 4.94815 17.1759 4.84988 16.8087 4.61797L16.4688 4.4175V3.98904H20.4071V4.4175L20.0242 4.559C19.6843 4.673 19.5124 4.83023 19.5124 5.0307C19.5124 5.11717 19.5397 5.24689 19.6257 5.44736L21.1339 8.99683L22.6264 5.44736C22.7123 5.24689 22.7397 5.11717 22.7397 5.0307C22.7397 4.83023 22.5678 4.673 22.2278 4.559L21.845 4.4175V3.98904H24.6893V4.4175L24.2322 4.67693C23.947 4.84988 23.7751 4.96387 23.5914 5.40805L21.2159 10.8757L20.1493 11.3474Z" fill="#171717"/>
<path d="M25.459 9.34273C25.459 8.41114 26.0841 7.69574 27.139 7.32625C27.8658 7.05503 28.7332 6.92531 29.6435 6.86635V6.50865C29.6435 5.23509 29.245 4.67692 28.4479 4.67692C28.0768 4.67692 27.7368 4.74767 27.4946 4.94814C27.2797 5.10537 27.1117 5.37659 26.8421 6.16275H26.1896L25.7051 4.81843C26.7444 4.11875 27.6392 3.8436 28.6941 3.8436C30.6008 3.8436 31.4681 4.62975 31.4681 6.56368V9.24053C31.4681 9.72795 31.5814 9.85766 32.0933 9.95593L32.5778 10.0267L32.6637 10.4866L30.4601 11.3317H30.1202L29.7217 10.2429C29.2372 10.8993 28.4557 11.3317 27.7017 11.3317C26.3498 11.3317 25.4668 10.5455 25.4668 9.34273H25.459ZM29.6396 9.47245V7.55424C29.1707 7.58175 28.7449 7.6525 28.4167 7.7547C27.7212 7.95517 27.3344 8.38363 27.3344 9.01255C27.3344 9.64147 27.7759 10.0699 28.4167 10.0699C28.8426 10.0699 29.2997 9.86945 29.6396 9.46852V9.47245Z" fill="#171717"/>
<path d="M33.6992 11.1902V10.7617L34.2384 10.518C34.6643 10.3176 34.7659 10.1328 34.7659 9.64541V6.42611C34.7659 5.76968 34.6526 5.55348 34.2384 5.42377L33.7422 5.26654V4.84988L36.0474 3.84753L36.4303 4.07552V5.43556C37.1687 4.44894 38.1221 3.84753 39.0324 3.84753C40.5132 3.84753 41.4236 4.92063 41.4236 6.70913V9.64148C41.4236 10.1289 41.5213 10.3136 41.9511 10.5141L42.4785 10.7578V11.1863H38.5948V10.7578L39.134 10.5141C39.5052 10.3294 39.6029 10.1721 39.6029 9.64148V7.07862C39.6029 5.91905 39.091 5.31764 38.1651 5.31764C37.5829 5.31764 36.9968 5.64782 36.5866 6.14703V9.63754C36.5866 10.1682 36.6725 10.3254 37.0554 10.5102L37.5946 10.7539V11.1823H33.6953L33.6992 11.1902Z" fill="#171717"/>
<path d="M43.5801 11.1902V10.7617L44.1193 10.518C44.5451 10.3176 44.6467 10.1328 44.6467 9.6454V2.9867C44.6467 2.35777 44.5178 2.14158 44.1193 2.01187L43.6231 1.85464V1.42618L46.0845 0.451355L46.4674 0.695062V5.20364C47.1942 4.33102 48.0733 3.8436 48.9133 3.8436C50.3941 3.8436 51.3045 4.90098 51.3045 6.66196V9.63754C51.3045 10.125 51.4021 10.3097 51.8319 10.5102L52.3594 10.7539V11.1823H48.4757V10.7539L49.0149 10.5102C49.3861 10.3254 49.4837 10.1682 49.4837 9.63754V7.03145C49.4837 5.91511 48.9719 5.3137 48.0459 5.3137C47.4638 5.3137 46.866 5.62817 46.4674 6.11558V9.63754C46.4674 10.1682 46.5534 10.3254 46.9363 10.5102L47.4755 10.7539V11.1823H43.5762L43.5801 11.1902Z" fill="#171717"/>
<path d="M53.8288 8.51335V6.39467C53.8288 5.75002 53.6999 5.53776 53.3014 5.40805L52.8169 5.25082V4.83416L55.2628 3.84753L55.6613 4.09124V8.17137C55.6613 9.42921 56.1028 9.97559 57.1108 9.97559C57.568 9.97559 58.1189 9.70437 58.49 9.31915V6.3986C58.49 5.75395 58.3611 5.54169 57.9626 5.41198L57.4781 5.25475V4.83809L59.924 3.85147L60.3069 4.09517V9.2484C60.3069 9.73581 60.4202 9.86553 60.932 9.9638L61.4165 10.0346L61.5024 10.4945L59.2988 11.3396H58.9589L58.533 10.18C57.9782 10.9111 57.1265 11.3396 56.2981 11.3396C54.6923 11.3396 53.8249 10.3647 53.8249 8.52121L53.8288 8.51335Z" fill="#171717"/>
<path d="M64.2686 10.8875L63.4012 11.202L63.0183 10.974V2.9867C63.0183 2.33026 62.8894 2.14158 62.4908 2.00007L61.9946 1.84284V1.42618L64.4561 0.451355L64.839 0.679339V4.95994C65.4798 4.24454 66.2456 3.8436 67.0583 3.8436C68.7657 3.8436 70.0042 5.2744 70.0042 7.29088C70.0042 9.79477 68.4805 11.3278 66.0658 11.3278C65.4837 11.3278 64.8273 11.1705 64.2725 10.8836L64.2686 10.8875ZM68.0389 7.80974C68.0389 6.15096 67.3552 5.19185 66.2339 5.19185C65.722 5.19185 65.1946 5.46307 64.839 5.89153V9.1973C64.882 10.0699 65.4095 10.5573 66.1909 10.5573C67.2849 10.5573 68.0389 9.441 68.0389 7.80974Z" fill="#171717"/>
<path d="M13.2998 3.72567C12.8974 3.02993 12.7372 2.74692 12.3387 2.05117C12.2137 1.97649 12.1121 1.91752 11.9871 1.84677H1.3167C1.19167 1.92146 1.09009 1.98042 0.965059 2.05117C0.562626 2.74692 0.402434 3.026 0 3.72567C0 3.87111 0 3.98904 0 4.1384L5.29415 13.36C5.46997 13.4307 5.58718 13.4779 5.76301 13.5486L8.18542 12.8293C8.26747 12.7664 8.3378 12.7075 8.41985 12.6446C9.00201 11.6265 12.6044 5.35301 13.3038 4.1384C13.3038 3.99297 13.3038 3.87504 13.3038 3.72961L13.2998 3.72567ZM7.5173 9.0322C7.30632 9.39776 7.10315 9.75546 6.90779 10.0935C6.74369 10.0935 6.70071 10.0935 6.53662 10.0935L3.32887 4.5079C3.41092 4.36246 3.43045 4.32708 3.51641 4.18164H4.73152C4.90735 4.28384 5.048 4.36639 5.22773 4.46859C5.69658 5.29012 7.04845 7.63678 7.5173 8.45438C7.5173 8.65878 7.5173 8.82387 7.5173 9.02827V9.0322ZM8.5605 6.40645C7.88457 6.40645 7.33758 5.85615 7.33758 5.17613C7.33758 4.4961 7.88457 3.9458 8.5605 3.9458C9.23644 3.9458 9.78343 4.4961 9.78343 5.17613C9.78343 5.85615 9.23644 6.40645 8.5605 6.40645Z" fill="#171717"/>
</g>
<defs>
<clipPath id="clip0_176_151">
<rect width="70" height="13.0894" fill="white" transform="translate(0 0.455292)"/>
</clipPath>
</defs>
</svg>
