<svg width="14" height="10" viewBox="0 0 14 10" fill="none" xmlns="http://www.w3.org/2000/svg">
<path d="M1.99999 9.31461C1.70026 9.31461 1.44746 9.21194 1.24159 9.00661C1.03626 8.80074 0.933594 8.54794 0.933594 8.24821V1.44821C0.933594 1.14847 1.03626 0.895672 1.24159 0.689806C1.44746 0.484472 1.70026 0.381805 1.99999 0.381805H12C12.2997 0.381805 12.5525 0.484472 12.7584 0.689806C12.9637 0.895672 13.0664 1.14847 13.0664 1.44821V8.24821C13.0664 8.54794 12.9637 8.80074 12.7584 9.00661C12.5525 9.21194 12.2997 9.31461 12 9.31461H1.99999ZM6.99999 5.34821L1.79999 2.29781V8.24821C1.79999 8.30367 1.81946 8.35087 1.85839 8.38981C1.89733 8.42874 1.94453 8.44821 1.99999 8.44821H12C12.0555 8.44821 12.1027 8.42874 12.1416 8.38981C12.1805 8.35087 12.2 8.30367 12.2 8.24821V2.29781L6.99999 5.34821ZM6.99999 4.23141L12.1 1.24821H1.89999L6.99999 4.23141ZM1.79999 2.29781V1.24821V8.24821C1.79999 8.30367 1.81946 8.35087 1.85839 8.38981C1.89733 8.42874 1.94453 8.44821 1.99999 8.44821H1.79999V8.24821V2.29781Z" fill="#525252"/>
</svg>
