<svg width="10" height="14" viewBox="0 0 10 14" fill="none" xmlns="http://www.w3.org/2000/svg">
<path d="M0.366211 11.165V10.2978H1.16621V6.13141C1.16621 5.18687 1.46621 4.35647 2.06621 3.64021C2.66621 2.92341 3.43288 2.48714 4.36621 2.33141V1.44821C4.36621 1.27061 4.42754 1.12074 4.55021 0.998606C4.67234 0.875939 4.82221 0.814606 4.99981 0.814606C5.17741 0.814606 5.32728 0.875939 5.44941 0.998606C5.57208 1.12074 5.63341 1.27061 5.63341 1.44821V2.33141C6.56674 2.48714 7.33341 2.92047 7.93341 3.63141C8.53341 4.34234 8.83341 5.17567 8.83341 6.13141V10.2978H9.63341V11.165H0.366211ZM4.99981 13.1146C4.70008 13.1146 4.44728 13.0119 4.24141 12.8066C4.03608 12.6007 3.93341 12.3479 3.93341 12.0482H6.06621C6.06621 12.3479 5.96354 12.6007 5.75821 12.8066C5.55234 13.0119 5.29954 13.1146 4.99981 13.1146ZM2.03341 10.2978H7.96621V6.13141C7.96621 5.29834 7.68008 4.59567 7.10781 4.02341C6.53554 3.45114 5.83288 3.16501 4.99981 3.16501C4.16674 3.16501 3.46408 3.45114 2.89181 4.02341C2.31954 4.59567 2.03341 5.29834 2.03341 6.13141V10.2978Z" fill="#525252"/>
</svg>
