<svg width="12" height="12" viewBox="0 0 12 12" fill="none" xmlns="http://www.w3.org/2000/svg">
<path d="M10.6083 11.2354L6.77292 7.4C6.48125 7.65277 6.14097 7.84965 5.75208 7.99062C5.36319 8.13159 4.95 8.20208 4.5125 8.20208C3.4625 8.20208 2.57292 7.8375 1.84375 7.10833C1.11458 6.37916 0.75 5.4993 0.75 4.46875C0.75 3.43819 1.11458 2.55833 1.84375 1.82916C2.57292 1.1 3.45764 0.735413 4.49792 0.735413C5.52847 0.735413 6.4059 1.1 7.13021 1.82916C7.85451 2.55833 8.21667 3.43819 8.21667 4.46875C8.21667 4.8868 8.14861 5.29027 8.0125 5.67916C7.87639 6.06805 7.67222 6.43263 7.4 6.77291L11.25 10.5937L10.6083 11.2354ZM4.49792 7.32708C5.28542 7.32708 5.95625 7.04756 6.51042 6.48854C7.06458 5.92951 7.34167 5.25625 7.34167 4.46875C7.34167 3.68125 7.06458 3.00798 6.51042 2.44895C5.95625 1.88993 5.28542 1.61041 4.49792 1.61041C3.70069 1.61041 3.02257 1.88993 2.46354 2.44895C1.90451 3.00798 1.625 3.68125 1.625 4.46875C1.625 5.25625 1.90451 5.92951 2.46354 6.48854C3.02257 7.04756 3.70069 7.32708 4.49792 7.32708Z" fill="#525252"/>
</svg>
