<svg width="12" height="3" viewBox="0 0 12 3" fill="none" xmlns="http://www.w3.org/2000/svg">
<path d="M1.99984 2.83334C1.63317 2.83334 1.31939 2.70267 1.0585 2.44134C0.79717 2.18045 0.666504 1.86667 0.666504 1.50001C0.666504 1.13334 0.79717 0.819338 1.0585 0.558005C1.31939 0.297116 1.63317 0.166672 1.99984 0.166672C2.3665 0.166672 2.68028 0.297116 2.94117 0.558005C3.2025 0.819338 3.33317 1.13334 3.33317 1.50001C3.33317 1.86667 3.2025 2.18045 2.94117 2.44134C2.68028 2.70267 2.3665 2.83334 1.99984 2.83334ZM5.99984 2.83334C5.63317 2.83334 5.31939 2.70267 5.0585 2.44134C4.79717 2.18045 4.6665 1.86667 4.6665 1.50001C4.6665 1.13334 4.79717 0.819338 5.0585 0.558005C5.31939 0.297116 5.63317 0.166672 5.99984 0.166672C6.3665 0.166672 6.6805 0.297116 6.94184 0.558005C7.20273 0.819338 7.33317 1.13334 7.33317 1.50001C7.33317 1.86667 7.20273 2.18045 6.94184 2.44134C6.6805 2.70267 6.3665 2.83334 5.99984 2.83334ZM9.99984 2.83334C9.63317 2.83334 9.31917 2.70267 9.05784 2.44134C8.79695 2.18045 8.6665 1.86667 8.6665 1.50001C8.6665 1.13334 8.79695 0.819338 9.05784 0.558005C9.31917 0.297116 9.63317 0.166672 9.99984 0.166672C10.3665 0.166672 10.6805 0.297116 10.9418 0.558005C11.2027 0.819338 11.3332 1.13334 11.3332 1.50001C11.3332 1.86667 11.2027 2.18045 10.9418 2.44134C10.6805 2.70267 10.3665 2.83334 9.99984 2.83334Z" fill="#171717"/>
</svg>
